<?xml version="1.0" encoding="utf-8"?>
<!-- Generator: Adobe Illustrator 16.0.0, SVG Export Plug-In . SVG Version: 6.00 Build 0)  -->
<!DOCTYPE svg PUBLIC "-//W3C//DTD SVG 1.1//EN" "http://www.w3.org/Graphics/SVG/1.1/DTD/svg11.dtd">
<svg version="1.1" id="Слой_1" xmlns="http://www.w3.org/2000/svg" xmlns:xlink="http://www.w3.org/1999/xlink" x="0px" y="0px"
	 width="56.914px" height="286.371px" viewBox="0 0 56.914 286.371" enable-background="new 0 0 56.914 286.371"
	 xml:space="preserve">
<g>
	<path fill="#44B1B5" d="M40.187,203.503c10.365,3.434,14.961,9.606,15.266,20.184c0.125,4.313-1.617,6.679-6.037,6.685
		c-14.309,0.021-28.616,0.035-42.924-0.013c-4.137-0.014-5.883-2.282-5.845-6.374c0.096-10.583,4.898-17.058,15.465-20.563
		c1.873-0.461,2.576,0.873,3.314,2.149c3.408,5.313,3.408,5.313,9.682,3.301c3.214,2.521,5.676,1.757,7.429-1.767
		c0.602-1.208,1.43-2.203,2.357-3.146C39.292,203.714,39.726,203.568,40.187,203.503z"/>
	<path fill="#F0CCAF" d="M18.272,206.455c-0.721-1.012-1.441-2.023-2.162-3.035c-1.505-3.459-3.522-6.775-3.018-10.795
		c1.455-3.6,4.729-5.381,7.651-7.439c1.426-1.006,3.406-0.971,4.649,0.281c4.177,4.203,9.441,5.91,15.006,7.076
		c1.186,0.25,2.138,0.864,2.585,2.072c0.157,3.305-2.097,5.852-2.797,8.889c-0.226,0.268-0.451,0.535-0.677,0.805
		c-2.885,2.75-4.823,7.431-10.236,5.021C24.893,211.105,21.415,209.423,18.272,206.455z"/>
	<path fill="#AB6125" d="M42.984,194.615c-7.184-0.12-13.889-1.494-18.619-7.561c-1.303-1.672-2.062-0.947-3.038,0.205
		c-2.206,2.602-5.1,4.174-8.234,5.363c-0.476-5.441,2.266-10.021,7.387-12.802c6.35-3.444,12.247-2.401,17.766,1.692
		C42.261,184.496,44.222,190.341,42.984,194.615z"/>
	<path fill="#F9FBFB" d="M29.054,208.746c3.951-0.382,7.096-2.666,10.459-4.436c-0.036,2.326-1.703,3.898-2.783,5.697
		c-3.912,6.519-3.09,7.44-7.73-0.285c-0.348-0.236-0.453-0.461-0.322-0.672C28.804,208.847,28.929,208.746,29.054,208.746z"/>
	<path fill="#F8FBFA" d="M29.054,208.746c-0.018,0.326-0.035,0.652-0.057,0.979c-2.477,1.023-2.7,4.062-5.466,5.813
		c-1.752-3.023-3.506-6.051-5.26-9.08C21.998,206.601,25.218,209.119,29.054,208.746z"/>
</g>
<g>
	<path fill="#F7BB3B" d="M51.41,152.441c0.291,0.258,0.582,0.517,0.871,0.773c-0.912,2.506-3.293,2.174-5.092,2.199
		c-4.469,0.064-9.01,0.521-13.408-0.26c-7.069-1.254-14.132-0.525-21.199-0.567c-2.174-0.013-4.329,0.052-5.984-1.712
		c-0.004-6.296,0.014-12.593-0.021-18.89c-0.014-2.547,0.756-3.536,3.143-1.799c0.135,0.098,0.27,0.195,0.411,0.28
		c8.041,4.815,8.041,4.815,13.694-3.027c5.734-7.956,5.734-7.956,10.759,0.971c1.969,3.819,2.293,7.925,2.301,12.138
		c0.016,7.222,0.494,7.644,7.57,7.916C46.927,150.56,49.519,150.277,51.41,152.441z"/>
	<path fill="#E89D06" d="M51.556,160.279c0.045,7.289,0.045,7.293-7.277,7.295c-10.139,0.004-20.274,0.004-30.414,0
		c-7.279-0.002-7.279-0.006-7.307-7.295c0.969-2.377,3.278-2.276,5.104-2.274c11.598,0.017,23.193,0.019,34.789,0.001
		C48.277,158.002,50.587,157.902,51.556,160.279z"/>
	<path fill="#E79D00" d="M51.41,152.441c-4.16,0.043-8.328-0.067-12.475,0.181c-3.607,0.216-4.633-1.411-4.521-4.737
		c0.195-5.818,0.127-11.646,0.168-17.472c2.695,1.694,3.215,6.48,6.342,6.406c2.525-0.061,5.018-2.906,7.463-4.6
		c2.396-1.661,3.213-0.797,3.184,1.793C51.5,140.154,51.46,146.297,51.41,152.441z"/>
	<path fill="#FDFBF9" d="M51.556,160.279c-15,0-29.998,0-44.998,0c-4.586-2.602-4.576-4.452,0.039-7.403
		c15.229,0.114,30.458,0.229,45.685,0.341C56.261,156.425,56.109,157.908,51.556,160.279z"/>
	<path fill="#950956" d="M29.132,146.381c-2.625-2.459-4.351-4.635-1.32-7.633c1.158-1.146,1.699-0.848,2.696,0.156
		C33.591,142.008,31.386,144.054,29.132,146.381z"/>
	<path fill="#B2B2B2" d="M43.189,155.654c0.369,0.451,0.855,0.791,0.826,1.078c-0.029,0.311-0.551,0.791-0.852,0.789
		c-0.301-0.004-0.809-0.5-0.832-0.81C42.31,156.424,42.806,156.099,43.189,155.654z"/>
	<path fill="#BEBEBE" d="M51.41,156.82c-0.584,0.345-0.984,0.771-1.305,0.718c-0.33-0.056-0.58-0.578-0.865-0.896
		c0.34-0.259,0.68-0.718,1.02-0.718C50.583,155.925,50.908,156.404,51.41,156.82z"/>
	<path fill="#B2B2B2" d="M8.253,157.763c-0.488-0.365-0.82-0.611-1.151-0.859c0.248-0.326,0.459-0.869,0.754-0.92
		c0.317-0.053,0.905,0.289,1.012,0.59C8.958,156.826,8.529,157.265,8.253,157.763z"/>
	<path fill="#B2B2B2" d="M16.947,156.842c-0.918,0.365-1.334,0.669-1.738,0.65c-0.366-0.017-0.717-0.38-1.076-0.589
		c0.247-0.327,0.445-0.85,0.755-0.926C15.203,155.898,15.628,156.258,16.947,156.842z"/>
	<path fill="#B2B2B2" d="M21.818,158.316c-0.304-0.705-0.645-1.129-0.602-1.508c0.037-0.33,0.493-0.828,0.793-0.852
		c0.307-0.023,0.861,0.402,0.918,0.703C22.98,156.941,22.52,157.318,21.818,158.316z"/>
	<path fill="#B2B2B2" d="M31.22,156.564c-1.537,0.647-1.969,1-2.285,0.914c-0.307-0.082-0.492-0.611-0.732-0.945
		c0.365-0.201,0.724-0.545,1.097-0.564C29.718,155.943,30.155,156.211,31.22,156.564z"/>
	<path fill="#B2B2B2" d="M37.32,156.724c-0.51,0.371-0.857,0.818-1.172,0.799c-0.322-0.021-0.613-0.506-0.916-0.789
		c0.301-0.285,0.584-0.772,0.908-0.801C36.451,155.904,36.804,156.353,37.32,156.724z"/>
</g>
<g>
	<path fill="#3258B5" d="M47.699,85.574c-8.029,8.043-15.566,16.591-24.355,23.861c-3.111-0.382-5.602-1.537-6.254-4.998
		c-0.133-2.316,0.806-4.188,2.396-5.809c5.6-5.706,11.256-11.355,16.951-16.969c1.455-1.436,3.086-2.534,5.227-2.639
		C45.228,79.773,47.626,81.605,47.699,85.574z"/>
	<path fill="#456FD7" d="M8.262,94.342c7.275-8.786,15.789-16.357,23.861-24.363c3.297,0,4.875,1.818,5.24,4.932
		c-0.041,0.847-0.307,1.689-0.83,2.293c-6.486,7.512-13.602,14.404-20.932,21.076c-0.837,0.763-2.045,1.062-3.249,1.063
		C9.417,98.965,8.508,96.924,8.262,94.342z"/>
	<path fill="#C4C4C5" d="M36.849,75.105c-1.574-1.709-3.148-3.418-4.725-5.125c0.039-2.52,3.063-3.248,3.363-5.613
		c0.664,0,1.328,0.002,1.992,0.002c5.951,4.724,12.305,9.076,15.27,16.554c-1.021,2.269-2.516,4.024-5.051,4.649
		c-2.033-1.901-4.066-3.805-6.1-5.707C38.613,79.678,36.468,78.652,36.849,75.105z"/>
	<path fill="#FDC633" d="M8.262,94.342c1.414,1.299,2.828,2.598,4.242,3.896c3.58,0.283,5.096,2.601,5.721,5.799
		c1.707,1.799,3.412,3.599,5.119,5.398c-3.711,1.34-7.607,1.605-11.486,1.975c-3.296-0.418-5.155-2.276-5.577-5.572
		C6.655,101.958,6.915,98.056,8.262,94.342z"/>
	<path fill="#FC75B0" d="M52.75,80.923c-4.809-5.776-11.326-9.978-15.27-16.554l0.002-0.301c0.664-0.471,1.336-0.475,2.014-0.026
		c0.639,0.108,1.277,0.217,1.916,0.325c3.275,3.293,6.537,6.603,9.836,9.875C53.189,76.168,54.154,78.268,52.75,80.923z"/>
	<path fill="#627FD6" d="M6.282,105.839c1.858,1.856,3.717,3.714,5.576,5.571c-2.256,0.783-5.133,2.486-6.74,0.826
		C3.98,111.063,5.314,107.938,6.282,105.839z"/>
	<path fill="#567EE4" d="M18.225,104.037c-1.906-1.932-3.814-3.865-5.721-5.799c6.486-6.338,12.963-12.685,19.46-19.01
		c1.527-1.486,2.844-3.236,4.885-4.125c1.584,1.588,3.168,3.176,4.752,4.762C33.777,87.893,25.122,95.115,18.225,104.037z"/>
</g>
<g>
	<path fill="#00A2C5" d="M46.802,40.829c-1,7.174-1.424,7.538-8.822,7.566c-1.498,0.006-3.02,0.167-4.492-0.029
		c-4.854-0.648-8.818,0.729-11.686,4.806c-2.089,2.973-3.922,2.624-6.161-0.024c-2.215-2.62-4.461-5.225-8.634-5.075
		c-2.68,0.096-3.976-2.111-3.98-4.806c-0.011-7.163-0.146-14.329,0.04-21.487c0.151-5.854,4.878-4.707,8.501-5.118
		c1.505-1.074,3.054-1.967,5.003-2.012c8.331-0.192,16.66-0.325,24.987,0.113c2.953,0.155,5.604,1.613,5.992,4.417
		C48.548,26.388,49.527,33.705,46.802,40.829z"/>
	<path fill="#FDAC11" d="M46.802,40.829c-0.117-5.643-0.248-11.287-0.346-16.93c-0.104-6.041-1.037-7.022-6.941-7.065
		c-9.314-0.069-18.631-0.115-27.946-0.171c0.251-6.493,0.942-7.191,7.217-7.261c1.497-0.017,3.019-0.176,4.488,0.028
		c5.544,0.768,10.126-0.649,13.438-5.407c1.615-2.318,3.16-2.208,5.1-0.07c2.625,2.894,5.076,6.011,9.842,5.84
		c2.428-0.087,3.35,2.369,3.35,4.775c-0.002,6.989,0.062,13.978-0.018,20.966C54.923,41.295,50.71,40.883,46.802,40.829z"/>
	<path fill="#006E86" d="M31.626,35.407c-1.662-0.42-2.715-1.356-2.461-3.118c0.248-1.729,1.442-2.548,3.143-2.289
		c1.479,0.225,2.318,1.305,2.22,2.762C34.412,34.464,33.271,35.305,31.626,35.407z"/>
	<path fill="#006E86" d="M25.591,32.701c-0.298,1.663-1.237,2.776-2.949,2.641c-1.667-0.133-2.683-1.242-2.5-3.001
		c0.153-1.476,1.102-2.368,2.623-2.386C24.558,29.934,25.353,31.051,25.591,32.701z"/>
	<path fill="#006E86" d="M16.62,32.503c-0.314,1.842-1.244,2.961-2.957,2.839c-1.669-0.12-2.688-1.223-2.519-2.981
		c0.142-1.477,1.082-2.363,2.602-2.411C15.578,29.892,16.259,31.115,16.62,32.503z"/>
</g>
<g>
	<path fill="#2DB366" d="M55.128,262.271c-0.025,5.807-0.189,11.615-0.033,17.416c0.121,4.568-1.629,6.729-6.393,6.684
		c-13.104-0.125-26.21-0.125-39.314,0c-4.762,0.045-6.513-2.115-6.39-6.685c0.156-5.802-0.007-11.608-0.033-17.416
		c0.076-2.282,0.152-4.565,0.229-6.851c3.866-2.002,5.146,2.732,8.105,3.094c4.273,3.654,9.576,5.701,14.104,8.961
		c2.461,1.771,4.853,1.753,7.306-0.01c4.533-3.252,9.813-5.33,14.104-8.967c2.946-0.358,4.243-5.076,8.082-3.084
		C54.972,257.699,55.05,259.984,55.128,262.271z"/>
	<path fill="#3FD880" d="M54.894,255.414c-2.309,1.608-4.617,3.217-6.928,4.826c-0.896-0.498-1.637-1.162-1.922-2.166
		c-0.894-3.13-3.105-3.826-6.092-3.768c-6.773,0.135-13.56,0.201-20.329-0.02c-3.834-0.125-6.885,0.424-8.05,4.662
		c-0.172,0.627-0.89,0.944-1.456,1.291c-2.309-1.607-4.617-3.216-6.926-4.822c-0.357-1.66,0.791-2.363,1.938-3.105
		c6.846-4.432,13.703-8.85,20.511-13.34c1.945-1.283,3.746-1.998,5.957-0.545c7.368,4.848,14.791,9.613,22.179,14.434
		C54.664,253.438,55.182,254.275,54.894,255.414z"/>
	<path fill="#FDFEFE" d="M10.119,260.24c-0.591-8.305-0.591-8.306,7.742-8.307c7.458,0,14.915,0,22.372,0
		c8.345,0.001,8.345,0.002,7.733,8.307c-5.021,3.262-10.109,6.43-15.043,9.824c-2.713,1.865-5.045,1.877-7.763,0.004
		C20.23,266.671,15.142,263.503,10.119,260.24z"/>
	<path fill="#279D58" d="M18.63,270.843c-4.104,3.621-8.209,7.242-12.313,10.863c0.332,0.349,0.663,0.695,0.995,1.043
		c3.873-3.799,7.746-7.6,11.618-11.397C18.83,271.182,18.73,271.014,18.63,270.843z"/>
	<path fill="#279D58" d="M39.957,270.505c3.877,3.748,7.754,7.498,11.631,11.246c0.18-0.168,0.357-0.338,0.535-0.508
		c-3.914-3.766-7.828-7.531-11.744-11.297C40.238,270.132,40.096,270.318,39.957,270.505z"/>
	<path fill="#D2D2D2" d="M16.037,257.41c1.033-2.072,2.953-1.09,4.351-0.988c7.216,0.524,14.551-1.473,21.669,0.988
		c-0.996,0.992-2.231,1.369-3.601,1.387c-6.272,0.086-12.546,0.086-18.819,0C18.268,258.779,17.033,258.402,16.037,257.41z"/>
	<path fill="#D6D6D6" d="M16.027,259.408c-0.078-0.254-0.188-0.504-0.219-0.764c-0.012-0.105,0.148-0.232,0.229-0.35
		c8.674-0.732,17.345-0.732,26.02,0c0.082,0.252,0.196,0.5,0.233,0.76c0.015,0.105-0.145,0.234-0.225,0.354
		C33.386,260.955,24.707,260.955,16.027,259.408z"/>
	<path fill="#DBDBDB" d="M42.065,260.3c-0.847,1.924-2.567,1.021-3.862,1.043c-6.104,0.109-12.208,0.109-18.312,0
		c-1.296-0.022-3.017,0.881-3.863-1.043C24.707,259.559,33.386,259.559,42.065,260.3z"/>
	<path fill="#F9F9F9" d="M42.056,258.294c-8.674,0-17.346,0-26.02,0c0.003-0.295,0.003-0.592,0.001-0.887c8.673,0,17.345,0,26.018,0
		C42.053,257.705,42.053,258,42.056,258.294z"/>
	<path fill="#F5F5F5" d="M42.065,260.3c-8.679,0-17.358,0-26.037,0c0.004-0.299,0.003-0.596-0.001-0.893c8.68,0,17.359,0,26.039,0
		C42.062,259.705,42.062,260.003,42.065,260.3z"/>
</g>
</svg>
